<?xml version="1.0" encoding="utf-8"?>
<!-- Generator: Adobe Illustrator 19.1.0, SVG Export Plug-In . SVG Version: 6.00 Build 0)  -->
<svg version="1.1" id="Layer_1" xmlns="http://www.w3.org/2000/svg" xmlns:xlink="http://www.w3.org/1999/xlink" x="0px" y="0px"
	 viewBox="0 0 100 100" style="enable-background:new 0 0 100 100;" xml:space="preserve">
<style type="text/css">
	.st0{fill:#4B80C2;}
</style>
<rect x="23.6" y="7" class="st0" width="10.8" height="8.5"/>
<rect x="44.1" y="7" class="st0" width="10.8" height="8.5"/>
<rect x="64.6" y="7" class="st0" width="10.8" height="8.5"/>
<rect x="23.6" y="87" class="st0" width="10.8" height="8.5"/>
<rect x="44.1" y="87" class="st0" width="10.8" height="8.5"/>
<rect x="64.6" y="87" class="st0" width="10.8" height="8.5"/>
<rect x="5.2" y="66.1" class="st0" width="8.5" height="10.8"/>
<rect x="5.2" y="45.6" class="st0" width="8.5" height="10.8"/>
<rect x="5.2" y="25.1" class="st0" width="8.5" height="10.8"/>
<rect x="85.2" y="66.1" class="st0" width="8.5" height="10.8"/>
<rect x="85.2" y="45.6" class="st0" width="8.5" height="10.8"/>
<rect x="85.2" y="25.1" class="st0" width="8.5" height="10.8"/>
<g>
	<path class="st0" d="M12.9,14.5v73.1H86V14.5H12.9z M78.3,80.4H19.5V21.6h58.7V80.4z"/>
	<rect x="24.3" y="26.4" class="st0" width="49.2" height="49.2"/>
</g>
</svg>
